<mxfile host="65bd71144e">
    <diagram id="SLbGeW1vmF2xNr093REo" name="Page-1">
        <mxGraphModel dx="603" dy="371" grid="1" gridSize="10" guides="1" tooltips="1" connect="1" arrows="1" fold="1" page="1" pageScale="1" pageWidth="850" pageHeight="1100" math="0" shadow="0">
            <root>
                <mxCell id="0"/>
                <mxCell id="1" parent="0"/>
                <mxCell id="13" value="" style="whiteSpace=wrap;html=1;aspect=fixed;" vertex="1" parent="1">
                    <mxGeometry width="320" height="320" as="geometry"/>
                </mxCell>
                <mxCell id="14" value="CRUD AGENDA CON BUSCADOR" style="text;html=1;strokeColor=none;fillColor=none;align=center;verticalAlign=middle;whiteSpace=wrap;rounded=0;" vertex="1" parent="1">
                    <mxGeometry x="30" y="90" width="240" height="30" as="geometry"/>
                </mxCell>
                <mxCell id="16" value="" style="whiteSpace=wrap;html=1;aspect=fixed;" vertex="1" parent="1">
                    <mxGeometry x="350" width="320" height="320" as="geometry"/>
                </mxCell>
                <mxCell id="17" value="CRUD TODOS" style="text;html=1;strokeColor=none;fillColor=none;align=center;verticalAlign=middle;whiteSpace=wrap;rounded=0;" vertex="1" parent="1">
                    <mxGeometry x="460" y="90" width="120" height="30" as="geometry"/>
                </mxCell>
                <mxCell id="18" value="CONTACTO&lt;br&gt;NOMBRE,APELLIDOS,TEL1,TEL2,EMAIL,COMPAÑIA, FECHA DE INCLUSIÓN" style="rounded=1;whiteSpace=wrap;html=1;" vertex="1" parent="1">
                    <mxGeometry y="160" width="320" height="100" as="geometry"/>
                </mxCell>
                <mxCell id="20" value="TITULO, DESCRIPCIÓN" style="rounded=1;whiteSpace=wrap;html=1;" vertex="1" parent="1">
                    <mxGeometry x="420" y="160" width="180" height="60" as="geometry"/>
                </mxCell>
                <mxCell id="21" value="LAYOUT GENERAL&lt;br&gt;&lt;br&gt;INCLUIR LA ESTRUCTURA HTML MENU DE NAVEGACIÓN&amp;nbsp;" style="whiteSpace=wrap;html=1;aspect=fixed;" vertex="1" parent="1">
                    <mxGeometry y="340" width="320" height="320" as="geometry"/>
                </mxCell>
                <mxCell id="24" value="" style="shape=flexArrow;endArrow=classic;html=1;exitX=0.625;exitY=0.594;exitDx=0;exitDy=0;exitPerimeter=0;width=8;endSize=7.46;" edge="1" parent="1" source="21">
                    <mxGeometry width="50" height="50" relative="1" as="geometry">
                        <mxPoint x="210" y="540" as="sourcePoint"/>
                        <mxPoint x="240" y="530" as="targetPoint"/>
                    </mxGeometry>
                </mxCell>
                <mxCell id="25" value="INCLUDE" style="text;html=1;strokeColor=none;fillColor=none;align=center;verticalAlign=middle;whiteSpace=wrap;rounded=0;" vertex="1" parent="1">
                    <mxGeometry x="240" y="520" width="60" height="30" as="geometry"/>
                </mxCell>
            </root>
        </mxGraphModel>
    </diagram>
</mxfile>